<?xml version="1.0" encoding="UTF-8" standalone="no"?>
<!-- Created with Inkscape (http://www.inkscape.org/) -->

<svg
   version="1.1"
   id="svg2"
   width="666.66669"
   height="666.66669"
   viewBox="0 0 666.66669 666.66669"
   sodipodi:docname="gc-icon.eps"
   xmlns:inkscape="http://www.inkscape.org/namespaces/inkscape"
   xmlns:sodipodi="http://sodipodi.sourceforge.net/DTD/sodipodi-0.dtd"
   xmlns="http://www.w3.org/2000/svg"
   xmlns:svg="http://www.w3.org/2000/svg">
  <defs
     id="defs6" />
  <sodipodi:namedview
     id="namedview4"
     pagecolor="#ffffff"
     bordercolor="#000000"
     borderopacity="0.25"
     inkscape:showpageshadow="2"
     inkscape:pageopacity="0.0"
     inkscape:pagecheckerboard="0"
     inkscape:deskcolor="#d1d1d1" />
  <g
     id="g8"
     inkscape:groupmode="layer"
     inkscape:label="ink_ext_XXXXXX"
     transform="matrix(1.3333333,0,0,-1.3333333,0,666.66667)">
    <g
       id="g10"
       transform="scale(0.1)">
      <path
         d="M 0,0 H 5000 V 5000 H 0 Z"
         style="fill:#ffffff;fill-opacity:1;fill-rule:nonzero;stroke:none"
         id="path12" />
      <path
         d="m 1406.89,3710.99 c 29.83,-3.46 59.18,-13.55 89.14,-11.4 39.86,2.87 75.88,27.1 115.77,29.52 42.59,2.58 83.23,-20.02 125.9,-20.45 46.62,-0.46 92.53,25.56 138.04,15.41 21.96,-4.9 41.57,-17.94 63.73,-21.83 35.32,-6.21 70.49,11.61 106.35,12.19 37.16,0.62 74.04,-18.78 94.61,-49.72 -284.03,13.95 -568.64,16.09 -852.85,6.38 40.24,17.96 72.87,45.27 119.31,39.9"
         style="fill:#b85740;fill-opacity:1;fill-rule:nonzero;stroke:none"
         id="path14" />
      <path
         d="m 2971.03,2468.84 c -0.56,-32.75 -10.41,-65.07 -8.45,-97.77 1.48,-24.82 9.76,-49.05 9.34,-73.91 -0.53,-32.64 -15.89,-63.09 -21.64,-95.22 -8.86,-44.82 6.53,-94.1 -4.44,-138.11 -10.4,-41.75 -55.66,-79.21 -82.8,-111.84 -14.64,-17.59 -38.27,-36.87 -57.47,-24.42 -13.74,8.91 -14.53,28.39 -13.8,44.75 5.38,121.48 10.87,243.29 28.75,363.7 15.17,102.22 55.48,207.63 88.72,306.16 42.35,-48.29 62.89,-109.6 61.79,-173.34"
         style="fill:#b85740;fill-opacity:1;fill-rule:nonzero;stroke:none"
         id="path16" />
      <path
         d="m 2995.75,3371.43 c -5.25,-70.26 -10.82,-140.49 -16.49,-210.67 -28.49,-349.81 -60.53,-699.32 -72.96,-1049.15 -2.1,-57.79 -6,-133.9 -41.78,-182.31 -38.49,-52.09 -124.08,-54.32 -182.65,-53.95 -7.31,0.06 -14.69,0.12 -22.02,0.18 -79.54,0.5 -160.12,1.04 -240.08,0.69 -294.02,-1.34 -588.07,7.61 -881.66,23.61 -104.62,5.69 -217.41,10.93 -315.54,51.5 -72.04,29.83 -83.98,89.75 -86.31,163.22 -0.5,15.78 -0.95,31.5 -1.26,47.27 -4.15,195.27 4.1,389.86 6.35,585 2.92,253.75 17.26,507.29 41.11,759.87 3.71,39.5 8.28,80.31 28.34,114.56 41.33,70.54 155.76,67.43 227.09,71.29 414.9,22.76 839.12,17.61 1252.58,-20.23 76.2,-6.98 208.84,-8.9 264.08,-71.68 50.99,-57.89 46.47,-158.95 41.2,-229.2"
         style="fill:#b85740;fill-opacity:1;fill-rule:nonzero;stroke:none"
         id="path18" />
      <path
         d="m 1614.59,1938.9 c -24.74,1.25 -49.44,2.54 -74.18,3.88 l -7.84,0.42 c -101.66,5.52 -206.79,11.21 -297.65,48.81 -53.66,22.21 -65.07,64.86 -67.35,135.8 -4.71,146.46 -1.5,295.32 1.62,439.28 1.36,62.76 2.75,127.68 3.49,191.67 2.8,244.33 16.59,499.13 40.97,757.31 3.73,39.44 8.13,74.32 24.29,101.93 28.56,48.76 115.23,52.4 178.51,55.06 8.31,0.35 16.26,0.68 23.75,1.09 311.04,17.03 621.29,18 922.17,2.86 109.6,-5.51 219.25,-13.25 325.91,-23.01 9.51,-0.86 19.87,-1.67 30.85,-2.51 68.81,-5.26 172.78,-13.21 212.98,-58.88 45.22,-51.38 37.4,-156.25 33.64,-206.64 -9.27,-124.09 -19.73,-250.28 -29.87,-372.3 -24.17,-291.12 -49.17,-592.15 -59.69,-888.71 -1.64,-45.85 -4.35,-122.59 -35.79,-165.12 -31.3,-42.33 -116.65,-41.75 -157.67,-41.48 l -22.06,0.16 c -74.19,0.49 -158.28,1.06 -240.44,0.7 -256.13,-1.14 -519.66,5.29 -805.64,19.68"
         style="fill:#f89f4c;fill-opacity:1;fill-rule:nonzero;stroke:none"
         id="path20" />
      <path
         d="m 1359.44,2801.8 c -0.7,-14.05 -12.66,-24.85 -26.7,-24.14 -14.04,0.7 -24.85,12.65 -24.15,26.7 0.72,14.04 12.67,24.85 26.71,24.14 14.04,-0.71 24.85,-12.66 24.14,-26.7"
         style="fill:#b85740;fill-opacity:1;fill-rule:nonzero;stroke:none"
         id="path22" />
      <path
         d="m 1337.02,2468.62 c -0.7,-14.03 -12.66,-24.84 -26.7,-24.14 -14.04,0.71 -24.85,12.66 -24.15,26.7 0.71,14.05 12.67,24.86 26.7,24.15 14.04,-0.71 24.85,-12.66 24.15,-26.71"
         style="fill:#b85740;fill-opacity:1;fill-rule:nonzero;stroke:none"
         id="path24" />
      <path
         d="m 1345.89,2138.22 c -0.7,-14.04 -12.66,-24.85 -26.7,-24.15 -14.04,0.72 -24.85,12.67 -24.14,26.71 0.7,14.04 12.65,24.85 26.7,24.14 14.03,-0.7 24.84,-12.65 24.14,-26.7"
         style="fill:#b85740;fill-opacity:1;fill-rule:nonzero;stroke:none"
         id="path26" />
      <path
         d="m 1377.01,3141.37 c -0.71,-14.04 -12.66,-24.85 -26.7,-24.14 -14.04,0.7 -24.85,12.65 -24.15,26.7 0.71,14.04 12.67,24.85 26.71,24.14 14.03,-0.71 24.84,-12.66 24.14,-26.7"
         style="fill:#b85740;fill-opacity:1;fill-rule:nonzero;stroke:none"
         id="path28" />
      <path
         d="m 1394.55,3490.27 c -0.7,-14.04 -12.66,-24.85 -26.69,-24.15 -14.04,0.72 -24.85,12.67 -24.15,26.7 0.7,14.05 12.66,24.86 26.7,24.15 14.04,-0.71 24.85,-12.66 24.14,-26.7"
         style="fill:#b85740;fill-opacity:1;fill-rule:nonzero;stroke:none"
         id="path30" />
      <path
         d="m 2782.28,2760.14 c -0.7,-14.05 -12.65,-24.86 -26.69,-24.14 -14.05,0.7 -24.86,12.65 -24.15,26.69 0.71,14.04 12.66,24.85 26.7,24.15 14.05,-0.71 24.86,-12.66 24.14,-26.7"
         style="fill:#b85740;fill-opacity:1;fill-rule:nonzero;stroke:none"
         id="path32" />
      <path
         d="m 2798.81,3106.04 c -0.7,-14.05 -12.66,-24.85 -26.7,-24.14 -14.04,0.7 -24.84,12.65 -24.14,26.69 0.7,14.05 12.65,24.86 26.7,24.14 14.04,-0.7 24.85,-12.65 24.14,-26.69"
         style="fill:#b85740;fill-opacity:1;fill-rule:nonzero;stroke:none"
         id="path34" />
      <path
         d="m 2817.08,3451.86 c -0.71,-14.05 -12.67,-24.86 -26.7,-24.14 -14.04,0.7 -24.85,12.65 -24.15,26.69 0.7,14.04 12.67,24.85 26.7,24.15 14.04,-0.71 24.85,-12.66 24.15,-26.7"
         style="fill:#b85740;fill-opacity:1;fill-rule:nonzero;stroke:none"
         id="path36" />
      <path
         d="m 2764.01,2414.14 c -0.7,-14.04 -12.65,-24.85 -26.7,-24.15 -14.04,0.71 -24.85,12.67 -24.14,26.7 0.71,14.04 12.66,24.85 26.7,24.15 14.04,-0.71 24.85,-12.67 24.14,-26.7"
         style="fill:#b85740;fill-opacity:1;fill-rule:nonzero;stroke:none"
         id="path38" />
      <path
         d="m 2735.36,2092.65 c -0.71,-14.05 -12.66,-24.86 -26.71,-24.14 -14.03,0.7 -24.84,12.65 -24.14,26.7 0.7,14.03 12.67,24.84 26.7,24.14 14.04,-0.71 24.85,-12.66 24.15,-26.7"
         style="fill:#b85740;fill-opacity:1;fill-rule:nonzero;stroke:none"
         id="path40" />
      <path
         d="m 1617.79,3314.49 c -0.7,-14.04 -12.66,-24.85 -26.7,-24.15 -14.04,0.72 -24.85,12.67 -24.15,26.71 0.72,14.03 12.67,24.85 26.7,24.14 14.05,-0.7 24.86,-12.66 24.15,-26.7"
         style="fill:#b85740;fill-opacity:1;fill-rule:nonzero;stroke:none"
         id="path42" />
      <path
         d="m 1616.72,2952.69 c -0.7,-14.05 -12.66,-24.85 -26.7,-24.14 -14.04,0.7 -24.85,12.65 -24.15,26.69 0.71,14.05 12.66,24.86 26.71,24.15 14.03,-0.71 24.84,-12.66 24.14,-26.7"
         style="fill:#b85740;fill-opacity:1;fill-rule:nonzero;stroke:none"
         id="path44" />
      <path
         d="m 1584.35,2610.36 c -0.71,-14.03 -12.67,-24.84 -26.7,-24.14 -14.05,0.7 -24.86,12.66 -24.15,26.7 0.71,14.04 12.66,24.85 26.7,24.15 14.04,-0.71 24.85,-12.67 24.15,-26.71"
         style="fill:#b85740;fill-opacity:1;fill-rule:nonzero;stroke:none"
         id="path46" />
      <path
         d="m 1582.97,2281.64 c -0.7,-14.04 -12.67,-24.85 -26.7,-24.14 -14.04,0.7 -24.85,12.66 -24.15,26.7 0.71,14.04 12.66,24.84 26.71,24.14 14.03,-0.7 24.84,-12.66 24.14,-26.7"
         style="fill:#b85740;fill-opacity:1;fill-rule:nonzero;stroke:none"
         id="path48" />
      <path
         d="m 1845.84,3123.07 c -0.7,-14.04 -12.66,-24.85 -26.7,-24.14 -14.03,0.7 -24.84,12.66 -24.14,26.7 0.7,14.04 12.66,24.85 26.7,24.15 14.04,-0.72 24.85,-12.67 24.14,-26.71"
         style="fill:#b85740;fill-opacity:1;fill-rule:nonzero;stroke:none"
         id="path50" />
      <path
         d="m 1823.53,2774.93 c -0.71,-14.04 -12.66,-24.85 -26.7,-24.15 -14.05,0.71 -24.86,12.67 -24.14,26.71 0.7,14.03 12.65,24.84 26.69,24.14 14.05,-0.7 24.85,-12.65 24.15,-26.7"
         style="fill:#b85740;fill-opacity:1;fill-rule:nonzero;stroke:none"
         id="path52" />
      <path
         d="m 1806.93,2444.99 c -0.7,-14.04 -12.66,-24.84 -26.7,-24.14 -14.04,0.7 -24.85,12.66 -24.15,26.7 0.72,14.04 12.67,24.85 26.71,24.14 14.04,-0.7 24.85,-12.66 24.14,-26.7"
         style="fill:#b85740;fill-opacity:1;fill-rule:nonzero;stroke:none"
         id="path54" />
      <path
         d="m 1790.73,2122.84 c -0.71,-14.04 -12.66,-24.84 -26.7,-24.14 -14.04,0.7 -24.85,12.66 -24.15,26.7 0.72,14.04 12.67,24.86 26.71,24.14 14.04,-0.7 24.84,-12.65 24.14,-26.7"
         style="fill:#b85740;fill-opacity:1;fill-rule:nonzero;stroke:none"
         id="path56" />
      <path
         d="m 2303.5,3120.25 c -0.72,-14.03 -12.67,-24.84 -26.71,-24.14 -14.04,0.72 -24.85,12.67 -24.14,26.7 0.7,14.05 12.66,24.86 26.7,24.15 14.04,-0.71 24.85,-12.66 24.15,-26.71"
         style="fill:#b85740;fill-opacity:1;fill-rule:nonzero;stroke:none"
         id="path58" />
      <path
         d="m 2286.23,2777.15 c -0.7,-14.04 -12.66,-24.85 -26.7,-24.15 -14.03,0.71 -24.84,12.66 -24.14,26.71 0.7,14.03 12.66,24.84 26.7,24.14 14.04,-0.7 24.85,-12.67 24.14,-26.7"
         style="fill:#b85740;fill-opacity:1;fill-rule:nonzero;stroke:none"
         id="path60" />
      <path
         d="m 2270.91,2472.44 c -0.71,-14.04 -12.66,-24.85 -26.7,-24.14 -14.04,0.7 -24.85,12.66 -24.14,26.7 0.7,14.03 12.65,24.84 26.7,24.14 14.04,-0.7 24.84,-12.66 24.14,-26.7"
         style="fill:#b85740;fill-opacity:1;fill-rule:nonzero;stroke:none"
         id="path62" />
      <path
         d="m 2519.89,2601 c -0.7,-14.05 -12.66,-24.86 -26.7,-24.14 -14.04,0.7 -24.85,12.65 -24.15,26.7 0.72,14.04 12.67,24.84 26.71,24.14 14.03,-0.71 24.85,-12.66 24.14,-26.7"
         style="fill:#b85740;fill-opacity:1;fill-rule:nonzero;stroke:none"
         id="path64" />
      <path
         d="m 2504.8,2300.95 c -0.71,-14.04 -12.66,-24.86 -26.71,-24.15 -14.03,0.71 -24.84,12.66 -24.14,26.7 0.71,14.04 12.67,24.85 26.7,24.15 14.05,-0.71 24.86,-12.67 24.15,-26.7"
         style="fill:#b85740;fill-opacity:1;fill-rule:nonzero;stroke:none"
         id="path66" />
      <path
         d="m 2232.5,2126.11 c -0.7,-14.04 -12.66,-24.85 -26.7,-24.15 -14.03,0.72 -24.84,12.67 -24.14,26.71 0.7,14.04 12.66,24.85 26.7,24.14 14.04,-0.7 24.85,-12.65 24.14,-26.7"
         style="fill:#b85740;fill-opacity:1;fill-rule:nonzero;stroke:none"
         id="path68" />
      <path
         d="m 1871.58,3522.24 c -0.7,-14.04 -12.65,-24.85 -26.7,-24.14 -14.04,0.7 -24.84,12.66 -24.14,26.7 0.71,14.04 12.66,24.85 26.7,24.15 14.04,-0.72 24.85,-12.67 24.14,-26.71"
         style="fill:#b85740;fill-opacity:1;fill-rule:nonzero;stroke:none"
         id="path70" />
      <path
         d="m 2315.89,3505.72 c -0.71,-14.03 -12.67,-24.84 -26.71,-24.14 -14.03,0.71 -24.84,12.66 -24.14,26.7 0.7,14.04 12.66,24.86 26.7,24.14 14.04,-0.7 24.85,-12.65 24.15,-26.7"
         style="fill:#b85740;fill-opacity:1;fill-rule:nonzero;stroke:none"
         id="path72" />
      <path
         d="m 2563.1,3295.08 c -0.72,-14.03 -12.67,-24.85 -26.71,-24.14 -14.04,0.7 -24.85,12.66 -24.14,26.7 0.7,14.04 12.66,24.85 26.7,24.15 14.04,-0.72 24.85,-12.67 24.15,-26.71"
         style="fill:#b85740;fill-opacity:1;fill-rule:nonzero;stroke:none"
         id="path74" />
      <path
         d="m 2542.84,2922.6 c -0.7,-14.04 -12.65,-24.86 -26.7,-24.14 -14.03,0.7 -24.85,12.65 -24.14,26.7 0.7,14.03 12.66,24.84 26.7,24.14 14.04,-0.71 24.85,-12.66 24.14,-26.7"
         style="fill:#b85740;fill-opacity:1;fill-rule:nonzero;stroke:none"
         id="path76" />
      <path
         d="m 1694.35,1892 c -52.1,2.37 -104.16,4.99 -156.24,7.83 -104.62,5.69 -217.41,10.93 -315.54,51.5 -72.04,29.83 -83.98,89.75 -86.31,163.22 -0.5,15.78 -0.95,31.5 -1.26,47.27 10.26,-0.18 20.87,-0.97 31.67,-2.14 0.26,-10.63 0.56,-21.26 0.9,-31.87 2.28,-70.94 13.69,-113.59 67.35,-135.8 90.86,-37.6 195.99,-43.29 297.65,-48.81 l 7.84,-0.42 c 24.74,-1.34 49.44,-2.63 74.18,-3.88 29.74,-1.5 59.23,-2.91 88.5,-4.23 -0.13,-0.53 -0.26,-1.06 -0.39,-1.58 -3.42,-14.12 -6.34,-27.82 -8.35,-41.09"
         style="fill:#b8523b;fill-opacity:1;fill-rule:nonzero;stroke:none"
         id="path78" />
      <path
         d="m 1703.09,1934.67 c -29.27,1.32 -58.76,2.73 -88.5,4.23 -24.74,1.25 -49.44,2.54 -74.18,3.88 l -7.84,0.42 c -101.66,5.52 -206.79,11.21 -297.65,48.81 -53.66,22.21 -65.07,64.86 -67.35,135.8 -0.34,10.61 -0.64,21.24 -0.9,31.87 37.53,-4.07 77.36,-12.7 112.91,-15.54 5.22,-0.41 10.44,-0.82 15.67,-1.21 -0.1,-0.71 -0.16,-1.42 -0.2,-2.15 -0.71,-14.04 10.1,-25.99 24.14,-26.71 0.43,-0.02 0.86,-0.03 1.29,-0.03 13.48,0 24.73,10.58 25.41,24.18 0.02,0.4 0.03,0.79 0.03,1.17 67.15,-4.26 134.44,-6.81 201.7,-6.81 62.43,0 124.82,2.19 187.11,7.25 3.77,0.31 7.56,0.63 11.34,0.96 -3.6,-4.14 -5.89,-9.48 -6.19,-15.39 -0.39,-7.79 2.77,-14.94 8.05,-19.88 -11.73,-42.03 -23.08,-84.19 -33.83,-126.55 -3.77,-14.76 -7.41,-29.5 -11.01,-44.3"
         style="fill:#f79647;fill-opacity:1;fill-rule:nonzero;stroke:none"
         id="path80" />
      <path
         d="m 1320.48,2114.04 c -0.43,0 -0.86,0.01 -1.29,0.03 -14.04,0.72 -24.85,12.67 -24.14,26.71 0.04,0.73 0.1,1.44 0.2,2.15 16.88,-1.28 33.77,-2.46 50.67,-3.54 0,-0.38 -0.01,-0.77 -0.03,-1.17 -0.68,-13.6 -11.93,-24.18 -25.41,-24.18"
         style="fill:#b8523b;fill-opacity:1;fill-rule:nonzero;stroke:none"
         id="path82" />
      <path
         d="m 1747.93,2105.52 c -5.28,4.94 -8.44,12.09 -8.05,19.88 0.3,5.91 2.59,11.25 6.19,15.39 4.04,0.36 8.08,0.72 12.12,1.1 -3.45,-12.11 -6.87,-24.24 -10.26,-36.37"
         style="fill:#b8523b;fill-opacity:1;fill-rule:nonzero;stroke:none"
         id="path84" />
      <path
         d="m 2058.08,3542.09 -0.88,0.02 c -9.6,0.48 -17.01,8.65 -16.54,18.26 l 1.82,36.83 c 0.48,9.61 8.54,17.02 18.26,16.54 9.6,-0.47 17.01,-8.65 16.54,-18.26 l -1.82,-36.83 c -0.46,-9.31 -8.16,-16.56 -17.38,-16.56"
         style="fill:#b85740;fill-opacity:1;fill-rule:nonzero;stroke:none"
         id="path86" />
      <path
         d="m 2050.37,3389.01 -0.89,0.02 c -9.61,0.49 -17.01,8.68 -16.52,18.29 l 3.88,76.53 c 0.47,9.61 8.57,16.98 18.27,16.52 9.61,-0.49 17.01,-8.67 16.52,-18.27 l -3.87,-76.55 c -0.48,-9.31 -8.17,-16.54 -17.39,-16.54 z m -7.82,-153.07 -0.9,0.02 c -9.61,0.5 -17,8.68 -16.51,18.29 l 3.91,76.53 c 0.49,9.61 8.6,16.97 18.29,16.52 9.61,-0.49 17.01,-8.69 16.51,-18.3 l -3.91,-76.53 c -0.48,-9.31 -8.17,-16.53 -17.39,-16.53 z m -7.78,-153.08 -0.93,0.03 c -9.61,0.51 -16.99,8.7 -16.49,18.31 l 3.88,76.52 c 0.5,9.6 8.45,16.96 18.29,16.51 9.61,-0.49 16.99,-8.68 16.51,-18.29 l -3.88,-76.56 c -0.49,-9.3 -8.19,-16.52 -17.38,-16.52 z m -7.34,-153.09 -0.81,0.02 c -9.61,0.44 -17.05,8.59 -16.61,18.2 1.17,25.53 2.36,51.05 3.58,76.58 0.46,9.61 8.57,16.99 18.24,16.57 9.61,-0.46 17.03,-8.62 16.56,-18.23 -1.21,-25.51 -2.4,-51.01 -3.57,-76.52 -0.44,-9.34 -8.14,-16.62 -17.39,-16.62 z m -6.73,-153.12 -0.75,0.01 c -9.61,0.41 -17.08,8.53 -16.67,18.15 1.08,25.52 2.19,51.06 3.31,76.59 0.42,9.61 8.45,17.07 18.18,16.64 9.6,-0.42 17.05,-8.56 16.63,-18.18 -1.13,-25.5 -2.23,-51.01 -3.3,-76.53 -0.4,-9.36 -8.12,-16.68 -17.4,-16.68 z m -6.39,-153.14 -0.73,0.02 c -9.62,0.39 -17.09,8.5 -16.69,18.12 l 3.17,76.57 c 0.4,9.62 8.52,17.13 18.13,16.68 9.61,-0.4 17.08,-8.51 16.68,-18.12 l -3.17,-76.56 c -0.38,-9.38 -8.1,-16.71 -17.39,-16.71 z m -6.3,-153.15 -0.73,0.02 c -9.61,0.4 -17.08,8.52 -16.68,18.13 l 3.15,76.56 c 0.39,9.61 8.33,17.17 18.11,16.69 9.61,-0.39 17.09,-8.51 16.69,-18.12 l -3.14,-76.58 c -0.39,-9.36 -8.11,-16.7 -17.4,-16.7 z m -6.43,-153.13 -0.77,0.02 c -9.61,0.41 -17.06,8.54 -16.65,18.15 1.1,25.52 2.19,51.03 3.25,76.54 0.4,9.61 8.62,17.11 18.14,16.68 9.61,-0.41 17.08,-8.52 16.68,-18.13 -1.08,-25.53 -2.15,-51.06 -3.26,-76.59 -0.41,-9.36 -8.12,-16.67 -17.39,-16.67 z m -6.84,-153.11 -0.82,0.01 c -9.6,0.45 -17.04,8.6 -16.6,18.21 1.2,25.51 2.35,51.02 3.49,76.53 0.42,9.61 8.43,17.02 18.17,16.63 9.61,-0.43 17.06,-8.57 16.63,-18.18 -1.13,-25.53 -2.29,-51.06 -3.47,-76.59 -0.44,-9.33 -8.15,-16.61 -17.4,-16.61"
         style="fill:#b85740;fill-opacity:1;fill-rule:nonzero;stroke:none"
         id="path88" />
      <path
         d="m 1989.3,2050.72 -0.88,0.03 c -9.61,0.48 -17.01,8.65 -16.54,18.26 l 1.82,36.8 c 0.46,9.61 8.5,16.92 18.24,16.56 9.61,-0.47 17.02,-8.63 16.56,-18.24 l -1.81,-36.85 c -0.47,-9.32 -8.16,-16.56 -17.39,-16.56"
         style="fill:#b85740;fill-opacity:1;fill-rule:nonzero;stroke:none"
         id="path90" />
      <path
         d="m 3565.53,1785.4 c -9.28,-31.42 -27.39,-59.94 -34.21,-91.97 -5.19,-24.33 -3.67,-49.88 -10.69,-73.74 -9.23,-31.3 -32.15,-56.56 -46.26,-86 -20.48,-40.83 -18.79,-92.43 -41.09,-131.92 -21.15,-37.47 -74.76,-61.51 -109.63,-85.71 -18.8,-13.06 -46.71,-25.35 -61.89,-8.23 -10.88,12.26 -6.44,31.23 -1.37,46.82 37.57,115.64 75.33,231.57 124.66,342.87 41.88,94.47 108.83,185.32 167.14,271.43 27.94,-57.85 31.39,-122.42 13.34,-183.55"
         style="fill:#b85740;fill-opacity:1;fill-rule:nonzero;stroke:none"
         id="path92" />
      <path
         d="m 3829.99,2648.73 c -23.8,-66.31 -47.89,-132.53 -72.07,-198.64 -120.71,-329.56 -244.78,-657.88 -350.01,-991.73 -17.44,-55.15 -41.48,-127.46 -88.88,-164.58 -50.98,-39.94 -134.07,-19.27 -190.42,-3.3 -7.03,2 -14.13,4.03 -21.17,6.04 -76.53,21.68 -154.05,43.7 -231.2,64.67 -283.74,77.1 -564.78,164.12 -843.47,257.8 -99.32,33.38 -206.62,68.5 -290.39,133.76 -61.47,47.96 -57.01,108.9 -39.68,180.34 3.74,15.33 7.49,30.59 11.4,45.88 48.06,189.31 107.89,374.66 162.08,562.13 70.46,243.79 151.89,484.34 242.2,721.42 14.1,37.08 29.39,75.2 57.86,102.86 58.64,56.96 168.1,23.46 237.87,8.17 405.96,-88.69 813.45,-206.74 1201.86,-353.44 71.58,-27.03 198.9,-64.26 235.41,-139.48 33.71,-69.39 2.4,-165.59 -21.39,-231.9"
         style="fill:#b85740;fill-opacity:1;fill-rule:nonzero;stroke:none"
         id="path94" />
      <path
         d="m 2116.9,1636.26 c -23.51,7.8 -46.97,15.64 -70.46,23.53 l -7.44,2.5 c -96.52,32.41 -196.31,65.92 -273.87,126.39 -45.79,35.7 -45.42,79.85 -28.7,148.83 34.5,142.41 77.28,285.03 118.67,422.95 18.03,60.14 36.69,122.32 54.46,183.8 67.83,234.75 149.05,476.65 241.39,718.98 14.1,37.01 27.63,69.47 50.58,91.76 40.53,39.38 125.03,19.8 186.73,5.48 8.1,-1.88 15.85,-3.67 23.18,-5.27 304.32,-66.51 603.61,-148.3 889.56,-243.09 104.16,-34.53 207.78,-71.23 307.97,-109.07 8.94,-3.37 18.72,-6.91 29.07,-10.64 64.91,-23.41 163.01,-58.8 189.57,-113.53 29.89,-61.58 -5.61,-160.57 -22.67,-208.14 -42.01,-117.13 -85.74,-235.94 -128.04,-350.86 -100.9,-274.13 -205.25,-557.6 -294.46,-840.63 -13.8,-43.75 -36.87,-116.98 -78.51,-149.59 -41.45,-32.46 -123.56,-9.15 -163.02,2.05 l -21.21,6.03 c -71.38,20.26 -152.28,43.22 -231.56,64.77 -247.17,67.19 -499.45,143.65 -771.24,233.75"
         style="fill:#f89f4c;fill-opacity:1;fill-rule:nonzero;stroke:none"
         id="path96" />
      <path
         d="m 2101.03,2535.96 c -4.42,-13.35 -18.82,-20.58 -32.16,-16.15 -13.35,4.42 -20.58,18.82 -16.16,32.16 4.43,13.35 18.83,20.58 32.17,16.16 13.35,-4.43 20.58,-18.83 16.15,-32.17"
         style="fill:#b85740;fill-opacity:1;fill-rule:nonzero;stroke:none"
         id="path98" />
      <path
         d="m 1990.61,2220.82 c -4.44,-13.35 -18.83,-20.58 -32.18,-16.15 -13.34,4.42 -20.58,18.83 -16.15,32.17 4.42,13.35 18.82,20.57 32.17,16.15 13.34,-4.42 20.58,-18.83 16.16,-32.17"
         style="fill:#b85740;fill-opacity:1;fill-rule:nonzero;stroke:none"
         id="path100" />
      <path
         d="m 1911.06,1900.01 c -4.42,-13.35 -18.82,-20.58 -32.16,-16.15 -13.35,4.42 -20.58,18.83 -16.16,32.17 4.43,13.35 18.83,20.57 32.17,16.15 13.34,-4.43 20.58,-18.83 16.15,-32.17"
         style="fill:#b85740;fill-opacity:1;fill-rule:nonzero;stroke:none"
         id="path102" />
      <path
         d="m 2208.5,2858.56 c -4.43,-13.35 -18.83,-20.58 -32.18,-16.16 -13.34,4.43 -20.57,18.83 -16.15,32.17 4.42,13.35 18.82,20.58 32.17,16.15 13.34,-4.42 20.58,-18.82 16.16,-32.16"
         style="fill:#b85740;fill-opacity:1;fill-rule:nonzero;stroke:none"
         id="path104" />
      <path
         d="m 2318.42,3190.15 c -4.43,-13.34 -18.83,-20.58 -32.17,-16.16 -13.34,4.43 -20.58,18.83 -16.15,32.17 4.42,13.35 18.83,20.58 32.18,16.16 13.33,-4.43 20.56,-18.83 16.14,-32.17"
         style="fill:#b85740;fill-opacity:1;fill-rule:nonzero;stroke:none"
         id="path106" />
      <path
         d="m 3461.28,2116.48 c -4.43,-13.35 -18.83,-20.58 -32.18,-16.16 -13.34,4.43 -20.57,18.83 -16.15,32.17 4.42,13.35 18.83,20.58 32.18,16.15 13.34,-4.42 20.57,-18.83 16.15,-32.16"
         style="fill:#b85740;fill-opacity:1;fill-rule:nonzero;stroke:none"
         id="path108" />
      <path
         d="m 3569.41,2445.45 c -4.41,-13.34 -18.81,-20.58 -32.16,-16.15 -13.34,4.42 -20.58,18.83 -16.16,32.18 4.43,13.34 18.83,20.56 32.18,16.15 13.34,-4.43 20.58,-18.83 16.14,-32.18"
         style="fill:#b85740;fill-opacity:1;fill-rule:nonzero;stroke:none"
         id="path110" />
      <path
         d="m 3679.22,2773.88 c -4.43,-13.34 -18.83,-20.57 -32.18,-16.15 -13.34,4.43 -20.57,18.82 -16.14,32.17 4.41,13.34 18.83,20.58 32.17,16.16 13.34,-4.43 20.57,-18.83 16.15,-32.18"
         style="fill:#b85740;fill-opacity:1;fill-rule:nonzero;stroke:none"
         id="path112" />
      <path
         d="m 3351.42,1787.87 c -4.43,-13.35 -18.82,-20.57 -32.17,-16.15 -13.34,4.42 -20.58,18.83 -16.16,32.17 4.43,13.35 18.83,20.57 32.17,16.15 13.35,-4.42 20.58,-18.83 16.16,-32.17"
         style="fill:#b85740;fill-opacity:1;fill-rule:nonzero;stroke:none"
         id="path114" />
      <path
         d="m 3238.1,1485.65 c -4.43,-13.34 -18.83,-20.57 -32.18,-16.15 -13.34,4.43 -20.57,18.83 -16.14,32.17 4.42,13.35 18.81,20.58 32.16,16.15 13.34,-4.42 20.58,-18.82 16.16,-32.17"
         style="fill:#b85740;fill-opacity:1;fill-rule:nonzero;stroke:none"
         id="path116" />
      <path
         d="m 2486.72,2961.21 c -4.43,-13.34 -18.83,-20.56 -32.18,-16.15 -13.34,4.42 -20.58,18.83 -16.15,32.18 4.42,13.34 18.83,20.57 32.18,16.15 13.34,-4.42 20.56,-18.83 16.15,-32.18"
         style="fill:#b85740;fill-opacity:1;fill-rule:nonzero;stroke:none"
         id="path118" />
      <path
         d="m 2389.23,2612.79 c -4.43,-13.34 -18.83,-20.57 -32.18,-16.15 -13.34,4.43 -20.58,18.83 -16.15,32.18 4.42,13.34 18.83,20.58 32.18,16.14 13.34,-4.42 20.57,-18.82 16.15,-32.17"
         style="fill:#b85740;fill-opacity:1;fill-rule:nonzero;stroke:none"
         id="path120" />
      <path
         d="m 2266.76,2291.49 c -4.43,-13.34 -18.83,-20.57 -32.17,-16.15 -13.35,4.43 -20.58,18.83 -16.15,32.17 4.42,13.35 18.83,20.58 32.17,16.15 13.34,-4.42 20.57,-18.83 16.15,-32.17"
         style="fill:#b85740;fill-opacity:1;fill-rule:nonzero;stroke:none"
         id="path122" />
      <path
         d="m 2177.79,1975.03 c -4.42,-13.34 -18.83,-20.58 -32.17,-16.15 -13.34,4.42 -20.57,18.83 -16.15,32.17 4.43,13.35 18.83,20.57 32.18,16.15 13.34,-4.43 20.57,-18.83 16.14,-32.17"
         style="fill:#b85740;fill-opacity:1;fill-rule:nonzero;stroke:none"
         id="path124" />
      <path
         d="m 2655.48,2715.93 c -4.43,-13.35 -18.82,-20.58 -32.17,-16.15 -13.34,4.42 -20.58,18.82 -16.15,32.16 4.42,13.35 18.83,20.58 32.17,16.16 13.35,-4.43 20.57,-18.83 16.15,-32.17"
         style="fill:#b85740;fill-opacity:1;fill-rule:nonzero;stroke:none"
         id="path126" />
      <path
         d="m 2541.16,2386.34 c -4.42,-13.35 -18.83,-20.58 -32.18,-16.15 -13.34,4.42 -20.56,18.82 -16.15,32.16 4.43,13.35 18.83,20.58 32.18,16.16 13.34,-4.43 20.58,-18.83 16.15,-32.17"
         style="fill:#b85740;fill-opacity:1;fill-rule:nonzero;stroke:none"
         id="path128" />
      <path
         d="m 2437.21,2072.76 c -4.43,-13.35 -18.83,-20.57 -32.18,-16.15 -13.34,4.43 -20.57,18.83 -16.14,32.17 4.41,13.35 18.82,20.58 32.16,16.15 13.34,-4.42 20.58,-18.83 16.16,-32.17"
         style="fill:#b85740;fill-opacity:1;fill-rule:nonzero;stroke:none"
         id="path130" />
      <path
         d="m 2335.7,1766.59 c -4.42,-13.34 -18.83,-20.57 -32.17,-16.15 -13.34,4.42 -20.57,18.83 -16.15,32.17 4.43,13.35 18.83,20.57 32.17,16.15 13.35,-4.42 20.58,-18.83 16.15,-32.17"
         style="fill:#b85740;fill-opacity:1;fill-rule:nonzero;stroke:none"
         id="path132" />
      <path
         d="m 3095.82,2591.21 c -4.42,-13.35 -18.83,-20.57 -32.18,-16.15 -13.34,4.42 -20.57,18.83 -16.15,32.17 4.43,13.35 18.83,20.57 32.18,16.15 13.34,-4.42 20.57,-18.83 16.15,-32.17"
         style="fill:#b85740;fill-opacity:1;fill-rule:nonzero;stroke:none"
         id="path134" />
      <path
         d="m 2987.71,2265.12 c -4.42,-13.35 -18.82,-20.58 -32.17,-16.15 -13.34,4.42 -20.58,18.82 -16.15,32.16 4.43,13.34 18.82,20.58 32.17,16.16 13.34,-4.43 20.58,-18.83 16.15,-32.17"
         style="fill:#b85740;fill-opacity:1;fill-rule:nonzero;stroke:none"
         id="path136" />
      <path
         d="m 2891.71,1975.52 c -4.43,-13.34 -18.83,-20.57 -32.17,-16.15 -13.35,4.43 -20.58,18.82 -16.15,32.17 4.42,13.34 18.83,20.58 32.17,16.16 13.34,-4.43 20.57,-18.83 16.15,-32.18"
         style="fill:#b85740;fill-opacity:1;fill-rule:nonzero;stroke:none"
         id="path138" />
      <path
         d="m 3165.95,2033.05 c -4.43,-13.34 -18.83,-20.58 -32.17,-16.15 -13.34,4.42 -20.58,18.82 -16.15,32.16 4.42,13.35 18.82,20.58 32.16,16.16 13.35,-4.43 20.58,-18.82 16.16,-32.17"
         style="fill:#b85740;fill-opacity:1;fill-rule:nonzero;stroke:none"
         id="path140" />
      <path
         d="m 3071.42,1747.88 c -4.43,-13.35 -18.83,-20.58 -32.18,-16.15 -13.34,4.42 -20.58,18.83 -16.15,32.17 4.42,13.34 18.82,20.57 32.17,16.15 13.34,-4.42 20.58,-18.83 16.16,-32.17"
         style="fill:#b85740;fill-opacity:1;fill-rule:nonzero;stroke:none"
         id="path142" />
      <path
         d="m 2762.36,1651.96 c -4.42,-13.34 -18.83,-20.57 -32.16,-16.15 -13.36,4.43 -20.58,18.83 -16.16,32.18 4.43,13.34 18.83,20.58 32.17,16.15 13.34,-4.42 20.58,-18.83 16.15,-32.18"
         style="fill:#b85740;fill-opacity:1;fill-rule:nonzero;stroke:none"
         id="path144" />
      <path
         d="m 2786.71,3093.79 c -4.43,-13.35 -18.83,-20.58 -32.17,-16.15 -13.35,4.42 -20.58,18.83 -16.15,32.17 4.42,13.34 18.83,20.57 32.17,16.15 13.35,-4.43 20.57,-18.83 16.15,-32.17"
         style="fill:#b85740;fill-opacity:1;fill-rule:nonzero;stroke:none"
         id="path146" />
      <path
         d="m 3210.53,2959.42 c -4.43,-13.35 -18.83,-20.57 -32.18,-16.15 -13.34,4.43 -20.57,18.83 -16.15,32.17 4.42,13.34 18.83,20.58 32.17,16.15 13.34,-4.42 20.58,-18.83 16.16,-32.17"
         style="fill:#b85740;fill-opacity:1;fill-rule:nonzero;stroke:none"
         id="path148" />
      <path
         d="m 3392.63,2690.5 c -4.43,-13.35 -18.83,-20.58 -32.17,-16.15 -13.35,4.42 -20.58,18.82 -16.15,32.16 4.42,13.35 18.82,20.58 32.16,16.16 13.35,-4.43 20.58,-18.83 16.16,-32.17"
         style="fill:#b85740;fill-opacity:1;fill-rule:nonzero;stroke:none"
         id="path150" />
      <path
         d="m 3273.81,2336.89 c -4.43,-13.34 -18.83,-20.57 -32.17,-16.15 -13.34,4.42 -20.58,18.82 -16.15,32.17 4.42,13.34 18.83,20.58 32.17,16.15 13.35,-4.42 20.57,-18.83 16.15,-32.17"
         style="fill:#b85740;fill-opacity:1;fill-rule:nonzero;stroke:none"
         id="path152" />
      <path
         d="m 3240.47,1270.69 c -38.69,0 -79.64,10.66 -111.86,19.79 -7.03,2 -14.13,4.03 -21.17,6.04 -76.53,21.68 -154.05,43.7 -231.2,64.67 -283.74,77.1 -564.78,164.12 -843.47,257.8 -99.32,33.38 -206.62,68.5 -290.39,133.76 -38.24,29.84 -50.97,64.69 -50.95,103.98 0.01,23.86 4.72,49.36 11.27,76.36 3.74,15.33 7.49,30.59 11.4,45.88 9.84,-2.91 19.85,-6.5 29.95,-10.51 -2.58,-10.32 -5.13,-20.63 -7.62,-30.95 -16.72,-68.98 -17.09,-113.13 28.7,-148.83 77.56,-60.47 177.35,-93.98 273.87,-126.39 l 7.44,-2.5 c 23.49,-7.89 46.95,-15.73 70.46,-23.53 271.79,-90.1 524.07,-166.56 771.24,-233.75 79.28,-21.55 160.18,-44.51 231.56,-64.77 l 21.21,-6.03 c 24.55,-6.97 65.59,-18.62 103.1,-18.62 22.78,0 44.26,4.3 59.92,16.57 41.64,32.61 64.71,105.84 78.51,149.59 89.21,283.03 193.56,566.5 294.46,840.63 3.97,10.79 7.96,21.61 11.95,32.47 23.93,31.88 46.95,64.5 69.07,97.74 -120.71,-329.56 -244.78,-657.88 -350.01,-991.73 -17.44,-55.15 -41.48,-127.46 -88.88,-164.58 -21.83,-17.11 -49.57,-23.09 -78.56,-23.09"
         style="fill:#b8523b;fill-opacity:1;fill-rule:nonzero;stroke:none"
         id="path154" />
      <path
         d="m 3244.01,1313.09 c -37.51,0 -78.55,11.65 -103.1,18.62 l -21.21,6.03 c -71.38,20.26 -152.28,43.22 -231.56,64.77 -247.17,67.19 -499.45,143.65 -771.24,233.75 -23.51,7.8 -46.97,15.64 -70.46,23.53 l -7.44,2.5 c -96.52,32.41 -196.31,65.92 -273.87,126.39 -45.79,35.7 -45.42,79.85 -28.7,148.83 2.49,10.32 5.04,20.63 7.62,30.95 35.08,-13.93 71.18,-32.85 104.69,-45.07 4.92,-1.79 9.84,-3.57 14.77,-5.34 -0.28,-0.66 -0.54,-1.33 -0.77,-2.02 -4.42,-13.34 2.81,-27.75 16.16,-32.17 2.66,-0.88 5.35,-1.3 8.01,-1.3 10.67,0 20.61,6.76 24.15,17.45 0.13,0.37 0.24,0.74 0.35,1.12 122.6,-42.46 247.33,-78.87 374.85,-103.23 3.72,-0.71 7.46,-1.41 11.19,-2.1 -4.58,-3.04 -8.21,-7.57 -10.07,-13.19 -4.42,-13.34 2.81,-27.75 16.15,-32.17 2.66,-0.88 5.36,-1.3 8.01,-1.3 10.68,0 20.62,6.77 24.16,17.45 2.71,8.16 1.06,16.72 -3.69,23.15 91.05,-15.12 183.61,-23.67 275.82,-23.67 122.45,0 244.34,15.06 361.65,49.82 293.4,86.91 533.63,289 719.37,536.46 -3.99,-10.86 -7.98,-21.68 -11.95,-32.47 -100.9,-274.13 -205.25,-557.6 -294.46,-840.63 -13.8,-43.75 -36.87,-116.98 -78.51,-149.59 -15.66,-12.27 -37.14,-16.57 -59.92,-16.57 m -30.09,206.03 c -10.67,0 -20.6,-6.76 -24.14,-17.45 -4.43,-13.34 2.8,-27.74 16.14,-32.17 2.66,-0.88 5.36,-1.3 8.02,-1.3 10.67,0 20.61,6.77 24.16,17.45 4.42,13.35 -2.82,27.75 -16.16,32.17 -2.66,0.88 -5.36,1.3 -8.02,1.3 m -475.72,166.32 c -10.67,0 -20.62,-6.77 -24.16,-17.45 -4.42,-13.35 2.8,-27.75 16.16,-32.18 2.65,-0.88 5.35,-1.3 8,-1.3 10.68,0 20.62,6.77 24.16,17.45 4.43,13.35 -2.81,27.76 -16.15,32.18 -2.66,0.88 -5.35,1.3 -8.01,1.3 m 309.05,95.91 c -10.68,0 -20.62,-6.77 -24.16,-17.45 -4.43,-13.34 2.81,-27.75 16.15,-32.17 2.66,-0.88 5.36,-1.3 8.02,-1.3 10.67,0 20.61,6.76 24.16,17.45 4.42,13.34 -2.82,27.75 -16.16,32.17 -2.66,0.88 -5.36,1.3 -8.01,1.3 m 280,39.99 c -10.67,0 -20.61,-6.76 -24.16,-17.45 -4.42,-13.34 2.82,-27.75 16.16,-32.17 2.66,-0.88 5.36,-1.3 8.02,-1.3 10.67,0 20.6,6.76 24.15,17.45 4.42,13.34 -2.81,27.75 -16.16,32.17 -2.66,0.88 -5.36,1.3 -8.01,1.3"
         style="fill:#f79647;fill-opacity:1;fill-rule:nonzero;stroke:none"
         id="path156" />
      <path
         d="m 1886.91,1882.56 c -2.66,0 -5.35,0.42 -8.01,1.3 -13.35,4.42 -20.58,18.83 -16.16,32.17 0.23,0.69 0.49,1.36 0.77,2.02 15.93,-5.74 31.9,-11.38 47.9,-16.92 -0.11,-0.38 -0.22,-0.75 -0.35,-1.12 -3.54,-10.69 -13.48,-17.45 -24.15,-17.45"
         style="fill:#b8523b;fill-opacity:1;fill-rule:nonzero;stroke:none"
         id="path158" />
      <path
         d="m 3327.27,1770.42 c -2.66,0 -5.36,0.42 -8.02,1.3 -13.34,4.42 -20.58,18.83 -16.16,32.17 3.55,10.69 13.49,17.45 24.16,17.45 2.65,0 5.35,-0.42 8.01,-1.3 13.35,-4.42 20.58,-18.83 16.16,-32.17 -3.55,-10.69 -13.48,-17.45 -24.15,-17.45"
         style="fill:#b8523b;fill-opacity:1;fill-rule:nonzero;stroke:none"
         id="path160" />
      <path
         d="m 3213.94,1468.2 c -2.66,0 -5.36,0.42 -8.02,1.3 -13.34,4.43 -20.57,18.83 -16.14,32.17 3.54,10.69 13.47,17.45 24.14,17.45 2.66,0 5.36,-0.42 8.02,-1.3 13.34,-4.42 20.58,-18.82 16.16,-32.17 -3.55,-10.68 -13.49,-17.45 -24.16,-17.45"
         style="fill:#b8523b;fill-opacity:1;fill-rule:nonzero;stroke:none"
         id="path162" />
      <path
         d="m 2311.54,1749.14 c -2.65,0 -5.35,0.42 -8.01,1.3 -13.34,4.42 -20.57,18.83 -16.15,32.17 1.86,5.62 5.49,10.15 10.07,13.19 11.5,-2.13 23.01,-4.15 34.56,-6.06 4.75,-6.43 6.4,-14.99 3.69,-23.15 -3.54,-10.68 -13.48,-17.45 -24.16,-17.45"
         style="fill:#b8523b;fill-opacity:1;fill-rule:nonzero;stroke:none"
         id="path164" />
      <path
         d="m 3047.26,1730.43 c -2.66,0 -5.36,0.42 -8.02,1.3 -13.34,4.42 -20.58,18.83 -16.15,32.17 3.54,10.68 13.48,17.45 24.16,17.45 2.65,0 5.35,-0.42 8.01,-1.3 13.34,-4.42 20.58,-18.83 16.16,-32.17 -3.55,-10.69 -13.49,-17.45 -24.16,-17.45"
         style="fill:#b8523b;fill-opacity:1;fill-rule:nonzero;stroke:none"
         id="path166" />
      <path
         d="m 2738.2,1634.51 c -2.65,0 -5.35,0.42 -8,1.3 -13.36,4.43 -20.58,18.83 -16.16,32.18 3.54,10.68 13.49,17.45 24.16,17.45 2.66,0 5.35,-0.42 8.01,-1.3 13.34,-4.42 20.58,-18.83 16.15,-32.18 -3.54,-10.68 -13.48,-17.45 -24.16,-17.45"
         style="fill:#b8523b;fill-opacity:1;fill-rule:nonzero;stroke:none"
         id="path168" />
      <path
         d="m 2976.37,3062.57 c -1.81,0 -3.66,0.28 -5.47,0.89 -9.13,3.02 -14.09,12.87 -11.07,22.01 l 11.57,35 c 3.01,9.13 12.85,14.1 22,11.08 9.14,-3.01 14.1,-12.87 11.08,-22.01 l -11.57,-35.02 c -2.42,-7.31 -9.23,-11.95 -16.54,-11.95"
         style="fill:#b85740;fill-opacity:1;fill-rule:nonzero;stroke:none"
         id="path170" />
      <path
         d="m 2928.12,2917.09 c -1.81,0 -3.67,0.29 -5.48,0.9 -9.13,3.03 -14.08,12.89 -11.05,22.02 l 24.15,72.72 c 3.02,9.14 12.85,14.08 22.02,11.05 9.12,-3.03 14.08,-12.88 11.05,-22.01 l -24.15,-72.75 c -2.42,-7.3 -9.23,-11.93 -16.54,-11.93 z m -48.34,-145.45 c -1.81,0 -3.67,0.28 -5.49,0.89 -9.13,3.04 -14.08,12.9 -11.04,22.03 l 24.18,72.73 c 3.04,9.12 12.89,14.06 22.03,11.03 9.13,-3.04 14.07,-12.9 11.04,-22.03 l -24.18,-72.72 c -2.43,-7.31 -9.24,-11.93 -16.54,-11.93 z m -48.31,-145.46 c -1.8,0 -3.66,0.29 -5.47,0.89 -9.14,3.03 -14.09,12.88 -11.06,22.02 l 24.14,72.75 c 3.04,9.12 12.9,14.08 22.03,11.03 9.13,-3.04 14.08,-12.9 11.05,-22.03 l -24.15,-72.71 c -2.42,-7.32 -9.22,-11.95 -16.54,-11.95 z m -47.87,-145.6 c -1.79,0 -3.62,0.28 -5.42,0.87 -9.14,2.98 -14.14,12.82 -11.15,21.97 7.93,24.29 15.89,48.58 23.87,72.86 3.01,9.14 12.87,14.11 21.99,11.1 9.14,-2.99 14.11,-12.84 11.11,-21.98 -7.97,-24.26 -15.91,-48.52 -23.84,-72.8 -2.41,-7.35 -9.22,-12.02 -16.56,-12.02 z m -47.32,-145.78 c -1.78,0 -3.58,0.27 -5.36,0.85 -9.15,2.94 -14.18,12.77 -11.22,21.92 7.85,24.33 15.72,48.63 23.61,72.94 2.97,9.15 12.79,14.16 21.94,11.19 9.16,-2.97 14.17,-12.79 11.2,-21.94 -7.89,-24.29 -15.75,-48.6 -23.6,-72.89 -2.38,-7.38 -9.22,-12.07 -16.57,-12.07 z m -46.98,-145.9 c -1.77,0 -3.57,0.27 -5.35,0.85 -9.16,2.94 -14.18,12.75 -11.24,21.91 l 23.47,72.96 c 2.95,9.16 12.79,14.18 21.92,11.25 9.16,-2.95 14.19,-12.76 11.25,-21.92 L 2705.88,2201 c -2.37,-7.4 -9.22,-12.1 -16.58,-12.1 z m -46.89,-145.92 c -1.78,0 -3.56,0.27 -5.34,0.84 -9.16,2.95 -14.2,12.76 -11.25,21.91 l 23.45,72.96 c 2.95,9.16 12.77,14.2 21.91,11.26 9.16,-2.95 14.2,-12.75 11.26,-21.91 l -23.46,-72.97 c -2.37,-7.38 -9.2,-12.09 -16.57,-12.09 z m -47.03,-145.88 c -1.78,0 -3.58,0.27 -5.37,0.86 -9.15,2.96 -14.17,12.78 -11.21,21.93 7.87,24.31 15.71,48.62 23.54,72.91 2.96,9.17 12.81,14.18 21.94,11.23 9.16,-2.95 14.19,-12.76 11.23,-21.92 -7.84,-24.32 -15.69,-48.63 -23.56,-72.95 -2.38,-7.36 -9.22,-12.06 -16.57,-12.06 z m -47.4,-145.75 c -1.81,0 -3.62,0.28 -5.43,0.87 -9.14,3 -14.12,12.83 -11.13,21.98 7.94,24.27 15.86,48.54 23.76,72.82 2.96,9.15 12.8,14.15 21.95,11.18 9.14,-2.97 14.15,-12.81 11.17,-21.95 -7.9,-24.31 -15.82,-48.6 -23.77,-72.9 -2.41,-7.34 -9.23,-12 -16.55,-12"
         style="fill:#b85740;fill-opacity:1;fill-rule:nonzero;stroke:none"
         id="path172" />
      <path
         d="m 2512.49,1643.52 c -1.82,0 -3.66,0.28 -5.48,0.88 -9.13,3.02 -14.08,12.89 -11.05,22.02 l 11.56,35 c 3.02,9.13 12.84,14.1 22,11.07 9.13,-3.02 14.1,-12.87 11.08,-22 l -11.58,-35.03 c -2.42,-7.31 -9.23,-11.94 -16.53,-11.94"
         style="fill:#b85740;fill-opacity:1;fill-rule:nonzero;stroke:none"
         id="path174" />
      <path
         d="m 1879.48,2614.62 c 12.63,27.25 31.43,51.94 38.77,81.06 9.79,38.74 -1.92,80.56 8.29,119.19 10.91,41.25 45.12,72.75 58.91,113.13 15.06,44.12 4.75,95.89 28.67,135.91 11.54,19.31 30.07,33.84 40.72,53.67 16.99,31.59 11.09,70.57 21.78,104.8 11.07,35.48 41.06,64.43 76.9,74.24 -102.36,-265.32 -193.66,-534.9 -273.59,-807.81 -4.43,43.86 -20.13,83.41 -0.45,125.81"
         style="fill:#b85740;fill-opacity:1;fill-rule:nonzero;stroke:none"
         id="path176" />
    </g>
  </g>
</svg>
